<svg width="21" height="16" viewBox="0 0 21 16" xmlns="http://www.w3.org/2000/svg"><title>001-google-plus</title><g fill-rule="nonzero"><path d="M15.98 6.832H8.523v2.389h4.55c-.68 2.076-2.698 3.582-5.083 3.582-2.942 0-5.327-2.291-5.327-5.118 0-2.827 2.385-5.118 5.327-5.118 1.481 0 2.821.581 3.787 1.52l1.804-1.885A8.133 8.133 0 0 0 7.99.008C3.577.008 0 3.445 0 7.685s3.577 7.678 7.99 7.678c3.865 0 7.25-2.638 7.99-6.142V6.832zM20.822 6.828h-1.525V5.362h-1.308v1.466h-1.525v1.256h1.525V9.55h1.308V8.084h1.525z"/></g></svg>