<svg width="18" height="18" viewBox="0 0 18 18" xmlns="http://www.w3.org/2000/svg"><title>instagram-logo</title><g fill-rule="nonzero"><path d="M12.774 0H4.869C2.184 0 0 2.132 0 4.751v7.715c0 2.62 2.184 4.751 4.869 4.751h7.905c2.684 0 4.869-2.131 4.869-4.751V4.751c0-2.62-2.185-4.751-4.87-4.751zm3.303 12.466c0 1.778-1.482 3.224-3.303 3.224H4.869c-1.822 0-3.304-1.446-3.304-3.224V4.751c0-1.777 1.482-3.223 3.304-3.223h7.905c1.821 0 3.303 1.446 3.303 3.223v7.715z"/><path d="M9.222 4.696c-2.432 0-4.41 1.93-4.41 4.304 0 2.374 1.978 4.304 4.41 4.304 2.432 0 4.41-1.93 4.41-4.304 0-2.373-1.978-4.304-4.41-4.304zm0 7.043C7.675 11.74 6.415 10.51 6.415 9c0-1.51 1.26-2.74 2.807-2.74 1.548 0 2.807 1.23 2.807 2.74 0 1.51-1.26 2.74-2.807 2.74zM13.633 3.13a.815.815 0 0 0-.567.23.777.777 0 0 0-.235.553.78.78 0 0 0 .235.554.818.818 0 0 0 1.134 0 .779.779 0 0 0 .235-.554.776.776 0 0 0-.235-.553.816.816 0 0 0-.567-.23z"/></g></svg>