<svg width="20" height="15" viewBox="0 0 20 15" xmlns="http://www.w3.org/2000/svg"><title>Shape</title><path d="M19.654 2.413C19.41 1.268 18.54.424 17.492.298c-2.48-.298-4.99-.3-7.489-.298C7.504 0 4.993 0 2.513.298 1.467.424.597 1.268.353 2.413.002 4.043 0 5.822 0 7.5s0 3.457.348 5.087c.245 1.144 1.115 1.989 2.162 2.115 2.48.298 4.99.3 7.49.298 2.499.001 5.009 0 7.488-.298 1.047-.126 1.917-.97 2.162-2.115C20 10.957 20 9.178 20 7.5s.003-3.457-.346-5.087zM7.273 11.25v-7.5l6.363 3.762-6.363 3.738z" fill-rule="nonzero"/></svg>
