<svg width="17" height="17" viewBox="0 0 17 17" xmlns="http://www.w3.org/2000/svg"><title>002-linkedin</title><g fill-rule="nonzero"><path d="M3.892 5.25H.535a.266.266 0 0 0-.27.263v10.523c0 .145.121.263.27.263h3.357c.149 0 .27-.118.27-.263V5.513a.266.266 0 0 0-.27-.264zM2.215.018C.994.018 0 .987 0 2.178c0 1.19.994 2.16 2.215 2.16 1.22 0 2.213-.97 2.213-2.16 0-1.191-.993-2.16-2.213-2.16zM12.43 4.988c-1.348 0-2.345.565-2.95 1.208v-.683a.266.266 0 0 0-.27-.264H5.997a.266.266 0 0 0-.27.264v10.523c0 .145.121.263.27.263h3.35c.149 0 .27-.118.27-.263v-5.207c0-1.754.488-2.438 1.74-2.438 1.366 0 1.474 1.096 1.474 2.529v5.116c0 .145.12.263.27.263h3.35c.15 0 .27-.118.27-.263v-5.772c0-2.61-.51-5.276-4.29-5.276z"/></g></svg>