<svg width="19" height="18" viewBox="0 0 19 18" xmlns="http://www.w3.org/2000/svg"><title>Shape</title><path d="M18.571 13.495c-2.394-.4-3.485-2.858-3.601-3.137-.134-.278-.164-.479-.101-.627.125-.302.658-.473.999-.582.096-.032.186-.06.257-.09.69-.276 1.036-.63 1.029-1.05-.007-.334-.265-.64-.647-.778a1.154 1.154 0 0 0-.441-.086.978.978 0 0 0-.412.086c-.292.138-.552.213-.748.221a.708.708 0 0 1-.202-.034l.02-.324.004-.056c.081-1.31.182-2.942-.248-3.92C13.208.226 10.51 0 9.712 0l-.371.004c-.796 0-3.49.224-4.76 3.116-.431.98-.329 2.61-.247 3.921.008.129.016.255.022.377a.73.73 0 0 1-.24.036c-.228 0-.502-.075-.813-.223-.45-.214-1.273.072-1.384.664-.06.321.067.783 1.016 1.164.074.03.167.06.28.097.32.102.852.273.978.575.062.148.032.35-.1.621-.046.111-1.174 2.717-3.664 3.133a.517.517 0 0 0-.428.54c.004.074.02.148.052.222.21.497 1.006.842 2.506 1.084.033.086.072.264.093.366.032.147.065.299.11.456.046.16.182.426.574.426.132 0 .286-.03.453-.063.24-.048.568-.113.975-.113.226 0 .46.02.699.06.448.076.842.358 1.298.686.673.482 1.284.851 2.506.851l.096-.003c.045.002.09.003.137.003 1.07 0 2.013-.287 2.801-.852.436-.313.848-.609 1.297-.685.238-.04.473-.06.7-.06.39 0 .7.05.978.106.188.037.335.055.47.055a.546.546 0 0 0 .552-.419 6.78 6.78 0 0 0 .11-.452 3.32 3.32 0 0 1 .093-.364c1.48-.239 2.234-.57 2.443-1.066a.663.663 0 0 0 .055-.227.518.518 0 0 0-.428-.541z" fill-rule="nonzero"/></svg>
