<svg width="90" height="18" xmlns="http://www.w3.org/2000/svg" viewBox="0 0 112 22"><path fill="##040404" d="M24 5.4c-.3-.4-.8-.5-1.3-.5h-2.1c-.5 0-.9.2-1.3.5l-1.4 1.4-.4-1.9h-2.2l.5 2.1v10.1h2.3V9.4c0-.2.1-.3.2-.4l2.2-2.1c.1-.1.3-.2.4-.2h1.6c.1 0 .3.1.4.2l.6.6c.1.1.2.2.2.4v1.8h2.2V7.8c0-.5-.2-.9-.6-1.3L24 5.4zm12.9 0c-.3-.4-.8-.5-1.3-.5h-5.2c-.5 0-.9.2-1.3.5l-1.2 1.1c-.4.4-.6.8-.6 1.3v6.3c0 .5.2.9.6 1.3l1.2 1.1c.4.4.8.5 1.3.5h5.3c.5 0 .9-.2 1.3-.5l1.2-1.1c.4-.4.6-.8.6-1.4V7.8c0-.5-.2-.9-.6-1.3l-1.3-1.1zm-.6 8.6c0 .2-.1.3-.2.4l-.5.5c-.1.1-.2.2-.4.2h-4.6c-.1 0-.3-.1-.4-.2l-.5-.5c-.1-.1-.2-.2-.2-.4V7.9c0-.2.1-.3.2-.4l.5-.5c.1-.1.2-.2.4-.2h4.6c.1 0 .3.1.4.2l.5.5c.1.1.2.2.2.4V14zm8.4-14h-2.3v4.9h-2v2h2v7.3c0 .5.2.9.6 1.3l1.1 1c.4.4.8.5 1.3.5h3.5v-2h-3.1c-.1 0-.3-.1-.4-.2l-.5-.5c-.1-.1-.2-.3-.2-.4v-7h4.2v-2h-4.2V0zm15.6 5.4c-.3-.3-.7-.5-1.3-.5h-5.2c-.5 0-.9.2-1.3.5l-1.2 1.1c-.4.4-.6.8-.6 1.3v6.3c0 .5.2.9.6 1.3l1.2 1.1c.4.4.8.5 1.3.5H59c.5 0 .9-.2 1.3-.5l1.2-1.1c.4-.4.6-.8.6-1.4V7.8c0-.5-.2-.9-.6-1.3l-1.2-1.1zm-.5 8.6c0 .2-.1.3-.2.4l-.5.5c-.1.1-.2.2-.4.2h-4.6c-.1 0-.3-.1-.4-.2l-.5-.5c-.1-.1-.2-.2-.2-.4V7.9c0-.2.1-.3.2-.4l.5-.5c.1-.1.2-.2.4-.2h4.6c.1 0 .3.1.4.2l.5.5c.1.1.2.2.2.4V14zm8.4-14h-2.3v4.9h-2v2h2v7.3c0 .5.2.9.6 1.3l1.1 1c.4.4.8.5 1.3.5h3.5v-2h-3.1c-.1 0-.3-.1-.4-.2l-.5-.5c-.1-.1-.2-.3-.2-.4v-7h4.2v-2h-4.2V0zm10.6 14.4l-3.3-9.5h-2.3l4.4 12.4L76 22h2.3l6.1-17.1h-2.3zm17.6-9c-.3-.4-.8-.5-1.3-.5h-3.4c-.5 0-1 .2-1.3.5L89 6.8l-.4-1.9h-2.1l.4 2V22h2.3v-6.7l1.3 1.3c.3.3.8.5 1.3.5h3.4c.5 0 .9-.2 1.3-.5l1.2-1.1c.4-.4.6-.8.6-1.3V7.9c0-.5-.2-1-.6-1.3l-1.3-1.2zm-.6 8.7c0 .2-.1.3-.2.4l-.5.5c-.1.1-.2.2-.4.2h-3.1c-.1 0-.3-.1-.4-.2l-2.1-2c-.1-.1-.2-.2-.2-.4V9.4c0-.2.1-.3.2-.4l2.1-2c.1-.1.2-.2.4-.2h3.1c.1 0 .3.1.4.2l.5.5c.1.1.2.3.2.4v6.2zM112 7.8c0-.5-.2-.9-.6-1.3l-1.2-1.1c-.3-.4-.8-.5-1.3-.5h-5.2c-.5 0-.9.2-1.3.5l-1.2 1.1c-.4.4-.6.8-.6 1.3v6.3c0 .5.2.9.6 1.3l1.2 1.1c.4.4.8.5 1.3.5h5.2c.5 0 .9-.2 1.3-.5l1.7-1.6-1.5-1.4-1.4 1.4c-.1.1-.2.2-.4.2H104c-.1 0-.3-.1-.4-.2l-.5-.5c-.1-.1-.1-.2-.1-.4v-2.5h9V7.8zm-2.2 1.8H103V7.9c0-.1.1-.3.2-.4l.5-.5c.1-.1.2-.2.4-.2h4.6c.1 0 .3.1.4.2l.5.5c.1.1.2.2.2.4v1.7zM10.8.5c-.3-.3-.7-.5-1.2-.5H0v17.1h2.4V9.8h7.2c.5 0 .9-.2 1.3-.5l1.6-1.5c.3-.3.5-.7.5-1.3V3.3c0-.5-.2-.9-.6-1.3L10.8.5zm-.2 5.7c0 .2-.1.3-.2.4l-.9.8c-.1.1-.2.2-.3.2H2.4V2.3h6.8c.2 0 .3.1.4.2l.9.8c.1.1.2.2.2.4l-.1 2.5z"/></svg>
