<svg width="18" height="15" viewBox="0 0 18 15" xmlns="http://www.w3.org/2000/svg"><title>003-twitter-logo-silhouette</title><path d="M18.08 1.705a7.56 7.56 0 0 1-2.13.57A3.647 3.647 0 0 0 17.58.276a7.599 7.599 0 0 1-2.356.877A3.745 3.745 0 0 0 12.517.013c-2.048 0-3.71 1.618-3.71 3.612 0 .283.034.559.097.823A10.625 10.625 0 0 1 1.26.673a3.515 3.515 0 0 0-.502 1.816c0 1.253.655 2.36 1.65 3.007a3.784 3.784 0 0 1-1.68-.454v.045c0 1.75 1.279 3.21 2.974 3.543a3.85 3.85 0 0 1-.977.127c-.24 0-.471-.023-.698-.067.472 1.436 1.841 2.48 3.464 2.509a7.568 7.568 0 0 1-4.606 1.544c-.3 0-.595-.018-.885-.05a10.687 10.687 0 0 0 5.685 1.626c6.823 0 10.552-5.505 10.552-10.28l-.012-.467a7.304 7.304 0 0 0 1.855-1.867z" fill-rule="nonzero"/></svg>